<?xml version="1.0" encoding="UTF-8"?>
<svg version="1.1" xmlns="http://www.w3.org/2000/svg" width="512" height="512">
<path d="M0 0 C1.01790619 0.00215515 2.03581238 0.0043103 3.08456421 0.00653076 C17.69363523 0.05620146 32.02575853 0.30709809 46.375 3.3125 C47.34985352 3.51117676 48.32470703 3.70985352 49.32910156 3.91455078 C97.7109774 14.03517194 141.69928269 35.9516877 177.375 70.3125 C178.3640332 71.26068604 178.3640332 71.26068604 179.37304688 72.22802734 C188.86130305 81.37247479 197.6012044 90.66984009 205.375 101.3125 C206.23306152 102.46355017 207.09113451 103.61459177 207.94921875 104.765625 C213.98736829 112.95680614 219.34595521 121.47054105 224.375 130.3125 C224.73948242 130.94430176 225.10396484 131.57610352 225.47949219 132.22705078 C247.08534998 169.97532572 256.85198095 212.74189997 256.6875 255.9375 C256.68534485 256.95540619 256.6831897 257.97331238 256.68096924 259.02206421 C256.63129854 273.63113523 256.38040191 287.96325853 253.375 302.3125 C253.07698486 303.77478027 253.07698486 303.77478027 252.77294922 305.26660156 C242.65232806 353.6484774 220.7358123 397.63678269 186.375 433.3125 C185.74287598 433.97185547 185.11075195 434.63121094 184.45947266 435.31054688 C175.31502521 444.79880305 166.01765991 453.5387044 155.375 461.3125 C154.22394983 462.17056152 153.07290823 463.02863451 151.921875 463.88671875 C143.73224019 469.92427396 135.22961724 475.30707302 126.375 480.3125 C125.66778809 480.7146875 124.96057617 481.116875 124.23193359 481.53125 C101.09654164 494.5566741 75.92537591 503.30551461 49.9375 508.625 C49.21860596 508.77235596 48.49971191 508.91971191 47.7590332 509.0715332 C33.08339502 511.86090125 18.55831162 512.66142619 3.64770508 512.62817383 C0.70811513 512.6250221 -2.2304558 512.64854926 -5.16992188 512.67382812 C-18.54306192 512.71848737 -31.43916711 511.51301542 -44.625 509.3125 C-46.33055054 509.03031616 -46.33055054 509.03031616 -48.07055664 508.74243164 C-91.33802759 500.97044532 -132.38793216 480.98345309 -165.625 452.3125 C-166.37007813 451.67828125 -167.11515625 451.0440625 -167.8828125 450.390625 C-181.38779833 438.57948485 -194.05918743 425.82889772 -204.625 411.3125 C-205.48149066 410.16255169 -206.33826433 409.01281411 -207.1953125 407.86328125 C-213.23534209 399.67315742 -218.61867614 391.16870382 -223.625 382.3125 C-224.0271875 381.60528809 -224.429375 380.89807617 -224.84375 380.16943359 C-237.8691741 357.03404164 -246.61801461 331.86287591 -251.9375 305.875 C-252.08485596 305.15610596 -252.23221191 304.43721191 -252.3840332 303.6965332 C-255.35789088 288.05024391 -255.99800362 272.57681954 -255.9375 256.6875 C-255.93534485 255.66959381 -255.9331897 254.65168762 -255.93096924 253.60293579 C-255.88129854 238.99386477 -255.63040191 224.66174147 -252.625 210.3125 C-252.42632324 209.33764648 -252.22764648 208.36279297 -252.02294922 207.35839844 C-241.90232806 158.9765226 -219.9858123 114.98821731 -185.625 79.3125 C-184.99287598 78.65314453 -184.36075195 77.99378906 -183.70947266 77.31445312 C-174.56502521 67.82619695 -165.26765991 59.0862956 -154.625 51.3125 C-153.47394983 50.45443848 -152.32290823 49.59636549 -151.171875 48.73828125 C-142.98224019 42.70072604 -134.47961724 37.31792698 -125.625 32.3125 C-124.91778809 31.9103125 -124.21057617 31.508125 -123.48193359 31.09375 C-100.34654164 18.0683259 -75.17537591 9.31948539 -49.1875 4 C-48.46860596 3.85264404 -47.74971191 3.70528809 -47.0090332 3.5534668 C-31.36274391 0.57960912 -15.88931954 -0.06050362 0 0 Z " fill="#77B3D4" transform="translate(255.625,-0.3125)"/>
<path d="M0 0 C3.53921191 1.1797373 3.90810682 1.96461469 5.86328125 5.0234375 C6.41330811 5.870271 6.96333496 6.71710449 7.5300293 7.58959961 C8.11824463 8.50878174 8.70645996 9.42796387 9.3125 10.375 C19.03367404 25.25875961 29.61008613 39.43883823 40.68212891 53.33935547 C42.01868234 55.02354155 43.34487521 56.71538011 44.66796875 58.41015625 C48.98760693 63.94107602 53.34233837 69.43597081 57.7902832 74.86450195 C63.78546006 82.18186988 69.55228693 89.63001153 75.18359375 97.23046875 C77.64034232 100.54072781 80.18778981 103.77050301 82.75 107 C101.04259956 130.75087523 118.33221973 157.70826798 126 187 C126.21269531 187.80695313 126.42539062 188.61390625 126.64453125 189.4453125 C134.74656912 222.90264876 126.41591144 260.00164383 109.14111328 289.16162109 C103.73363344 297.87328631 97.01986114 305.56086388 90 313 C89.26523437 313.81082031 88.53046875 314.62164062 87.7734375 315.45703125 C73.17413223 330.95963802 53.37973812 341.37026564 33 347 C31.97543701 347.29414795 31.97543701 347.29414795 30.93017578 347.59423828 C9.89442951 353.45053641 -13.45654482 353.04991552 -34.25 346.375 C-35.05501953 346.11775146 -35.86003906 345.86050293 -36.68945312 345.59545898 C-65.99382339 335.84558835 -91.0046774 315.26369245 -107 289 C-107.40057617 288.34725098 -107.80115234 287.69450195 -108.21386719 287.02197266 C-124.74611574 259.51138428 -131.68058997 224.5984227 -125 193 C-124.75507813 191.78441406 -124.51015625 190.56882813 -124.2578125 189.31640625 C-116.05022275 151.42937356 -90.38244965 118.24465404 -66.44091797 88.78369141 C-64.07731796 85.85782531 -61.75688752 82.89845537 -59.4375 79.9375 C-58.98745605 79.36354492 -58.53741211 78.78958984 -58.07373047 78.19824219 C-57.16857283 77.04362141 -56.26362453 75.8888365 -55.35888672 74.73388672 C-53.53407566 72.40549862 -51.70629706 70.07945012 -49.87817383 67.75366211 C-48.95706404 66.58159274 -48.03633016 65.40922786 -47.1159668 64.23657227 C-44.88089185 61.38931033 -42.64152129 58.54571291 -40.390625 55.7109375 C-26.09865196 37.68495362 -12.78341245 19.11494201 0 0 Z " fill="#FEFEFE" transform="translate(255,65)"/>
<path d="M0 0 C1.83293426 3.03168874 2.39144719 5.89632323 2.88500977 9.37841797 C7.66561274 42.90823223 26.90532875 73.86570491 53.5625 94.47900391 C79.76148434 113.98496647 111.70766284 122.65821649 144.22558594 118.59716797 C179.13431921 112.84547532 209.43477892 94.65943052 230.1574707 65.81542969 C243.85297523 45.95682062 251.18979024 23.66340798 255 0 C255.33 0 255.66 0 256 0 C257.75031443 34.37423069 243.81443216 68.53063762 221.15869141 94.07617188 C200.4965685 116.62431108 170.38938746 134.69195655 139.13867188 136.13183594 C125.30772634 136.48569146 111.38142164 136.54195587 97.9375 132.9375 C97.13094971 132.72125977 96.32439941 132.50501953 95.4934082 132.28222656 C61.16904581 122.59645728 33.79481776 98.49889283 16.39257812 67.84228516 C5.1177274 47.19581705 -1.32294054 23.59243956 0 0 Z " fill="#6896B1" transform="translate(128,296)"/>
<path d="M0 0 C0.33 0 0.66 0 1 0 C1 5.28 1 10.56 1 16 C0.01 15.67 -0.98 15.34 -2 15 C-1.85816304 13.24967156 -1.71136571 11.49974466 -1.5625 9.75 C-1.48128906 8.77546875 -1.40007812 7.8009375 -1.31640625 6.796875 C-1.04925416 4.43538247 -0.64628032 2.28098935 0 0 Z " fill="#74A2BB" transform="translate(383,296)"/>
<path d="M0 0 C1.81248985 3.6249797 2.31888915 5.37259584 2.625 9.25 C2.69976562 10.14203125 2.77453125 11.0340625 2.8515625 11.953125 C2.92503906 12.96632813 2.92503906 12.96632813 3 14 C2.01 14.33 1.02 14.66 0 15 C0 10.05 0 5.1 0 0 Z " fill="#75A2BB" transform="translate(128,296)"/>
</svg>
